<svg viewBox="0 0 830.21 350.71" xmlns="http://www.w3.org/2000/svg" xmlns:xlink="http://www.w3.org/1999/xlink" id="Layer_1" overflow="hidden">
    <style>
        text {
            font-family:Helvetica,sans-serif;
        }
    </style>
<defs></defs><line x1="343.41" y1="0" x2="343.41" y2="309.96" stroke="#999999" stroke-miterlimit="10" stroke-dasharray="0 0 0 0 0 0 4 4 4 4 4 4" fill="none"/><circle cx="259.6" cy="48.1" r="10" stroke="#000000" stroke-miterlimit="10" fill="#52854C"/><line x1="259.6" y1="38.1" x2="259.6" y2="26.26" stroke="#000000" stroke-width="0.97" stroke-miterlimit="10" fill="#C1272D"/><path d="M267.1 18.76C267.1 22.9 263.74 26.26 259.6 26.26 255.46 26.26 252.1 22.9 252.1 18.76" stroke="#000000" stroke-miterlimit="10" fill="none"/><circle cx="283.82" cy="48.1" r="10" stroke="#000000" stroke-miterlimit="10" fill="#FFDB6D"/><line x1="283.82" y1="38.1" x2="283.82" y2="26.26" stroke="#000000" stroke-width="0.97" stroke-miterlimit="10" fill="#C1272D"/><path d="M291.32 18.76C291.32 22.9 287.96 26.26 283.82 26.26 279.68 26.26 276.32 22.9 276.32 18.76" stroke="#000000" stroke-miterlimit="10" fill="none"/><circle cx="308.04" cy="48.1" r="10" stroke="#000000" stroke-miterlimit="10" fill="#FFDB6D"/><line x1="308.04" y1="38.1" x2="308.04" y2="26.26" stroke="#000000" stroke-width="0.97" stroke-miterlimit="10" fill="#C1272D"/><path d="M315.54 18.76C315.54 22.9 312.18 26.26 308.04 26.26 303.9 26.26 300.54 22.9 300.54 18.76" stroke="#000000" stroke-miterlimit="10" fill="none"/><circle cx="186.95" cy="48.1" r="10" stroke="#000000" stroke-miterlimit="10" fill="#4E84C4"/><line x1="186.95" y1="38.1" x2="186.95" y2="26.26" stroke="#000000" stroke-width="0.97" stroke-miterlimit="10" fill="#C1272D"/><path d="M194.45 18.76C194.45 22.9 191.09 26.26 186.95 26.26 182.81 26.26 179.45 22.9 179.45 18.76" stroke="#000000" stroke-miterlimit="10" fill="none"/><circle cx="211.17" cy="48.1" r="10" stroke="#000000" stroke-miterlimit="10" fill="#4E84C4"/><line x1="211.17" y1="38.1" x2="211.17" y2="26.26" stroke="#000000" stroke-width="0.97" stroke-miterlimit="10" fill="#C1272D"/><path d="M218.67 18.76C218.67 22.9 215.31 26.26 211.17 26.26 207.03 26.26 203.67 22.9 203.67 18.76" stroke="#000000" stroke-miterlimit="10" fill="none"/><circle cx="235.39" cy="48.1" r="10" stroke="#000000" stroke-miterlimit="10" fill="#52854C"/><line x1="235.39" y1="38.1" x2="235.39" y2="26.26" stroke="#000000" stroke-width="0.97" stroke-miterlimit="10" fill="#C1272D"/><path d="M242.89 18.76C242.89 22.9 239.53 26.26 235.39 26.26 231.25 26.26 227.89 22.9 227.89 18.76" stroke="#000000" stroke-miterlimit="10" fill="none"/><line x1="179.24" y1="166.3" x2="218.88" y2="166.3" stroke="#000000" stroke-miterlimit="10" fill="none"/><line x1="227.68" y1="166.3" x2="267.31" y2="166.3" stroke="#000000" stroke-miterlimit="10" fill="none"/><line x1="276.11" y1="166.3" x2="315.75" y2="166.3" stroke="#000000" stroke-miterlimit="10" fill="none"/><circle cx="451.43" cy="48.1" r="10" stroke="#000000" stroke-miterlimit="10" fill="#52854C"/><line x1="451.43" y1="38.1" x2="451.43" y2="26.26" stroke="#000000" stroke-width="0.97" stroke-miterlimit="10" fill="#C1272D"/><path d="M458.93 18.76C458.93 22.9 455.57 26.26 451.43 26.26 447.29 26.26 443.93 22.9 443.93 18.76" stroke="#000000" stroke-miterlimit="10" fill="none"/><circle cx="475.64" cy="48.1" r="10" stroke="#000000" stroke-miterlimit="10" fill="#4E84C4"/><line x1="475.64" y1="38.1" x2="475.64" y2="26.26" stroke="#000000" stroke-width="0.97" stroke-miterlimit="10" fill="#C1272D"/><path d="M483.14 18.76C483.14 22.9 479.78 26.26 475.64 26.26 471.5 26.26 468.14 22.9 468.14 18.76" stroke="#000000" stroke-miterlimit="10" fill="none"/><circle cx="499.86" cy="48.1" r="10" stroke="#000000" stroke-miterlimit="10" fill="#4E84C4"/><line x1="499.86" y1="38.1" x2="499.86" y2="26.26" stroke="#000000" stroke-width="0.97" stroke-miterlimit="10" fill="#C1272D"/><path d="M507.36 18.76C507.36 22.9 504 26.26 499.86 26.26 495.72 26.26 492.36 22.9 492.36 18.76" stroke="#000000" stroke-miterlimit="10" fill="none"/><circle cx="378.77" cy="48.1" r="10" stroke="#000000" stroke-miterlimit="10" fill="#FFDB6D"/><line x1="378.77" y1="38.1" x2="378.77" y2="26.26" stroke="#000000" stroke-width="0.97" stroke-miterlimit="10" fill="#C1272D"/><path d="M386.27 18.76C386.27 22.9 382.91 26.26 378.77 26.26 374.63 26.26 371.27 22.9 371.27 18.76" stroke="#000000" stroke-miterlimit="10" fill="none"/><circle cx="402.99" cy="48.1" r="10" stroke="#000000" stroke-miterlimit="10" fill="#FFDB6D"/><line x1="402.99" y1="38.1" x2="402.99" y2="26.26" stroke="#000000" stroke-width="0.97" stroke-miterlimit="10" fill="#C1272D"/><path d="M410.49 18.76C410.49 22.9 407.13 26.26 402.99 26.26 398.85 26.26 395.49 22.9 395.49 18.76" stroke="#000000" stroke-miterlimit="10" fill="none"/><circle cx="427.21" cy="48.1" r="10" stroke="#000000" stroke-miterlimit="10" fill="#52854C"/><line x1="427.21" y1="38.1" x2="427.21" y2="26.26" stroke="#000000" stroke-width="0.97" stroke-miterlimit="10" fill="#C1272D"/><path d="M434.71 18.76C434.71 22.9 431.35 26.26 427.21 26.26 423.07 26.26 419.71 22.9 419.71 18.76" stroke="#000000" stroke-miterlimit="10" fill="none"/><line x1="371.06" y1="166.3" x2="410.7" y2="166.3" stroke="#000000" stroke-miterlimit="10" fill="none"/><line x1="419.5" y1="166.3" x2="459.14" y2="166.3" stroke="#000000" stroke-miterlimit="10" fill="none"/><line x1="467.93" y1="166.3" x2="507.57" y2="166.3" stroke="#000000" stroke-miterlimit="10" fill="none"/><g><line x1="186.95" y1="58.1" x2="186.95" y2="158.48" stroke="#000000" stroke-miterlimit="10" fill="none"/><path d="M183.21 164.09 186.95 157.81 190.69 164.09 183.21 164.09Z"/></g><g><line x1="211.17" y1="58.1" x2="211.17" y2="158.48" stroke="#000000" stroke-miterlimit="10" fill="none"/><path d="M207.43 164.09 211.17 157.81 214.91 164.09 207.43 164.09Z"/></g><g><line x1="235.39" y1="58.1" x2="235.39" y2="158.48" stroke="#000000" stroke-miterlimit="10" fill="none"/><path d="M231.65 164.09 235.39 157.81 239.12 164.09 231.65 164.09Z"/></g><g><line x1="259.6" y1="58.1" x2="259.6" y2="158.48" stroke="#000000" stroke-miterlimit="10" fill="none"/><path d="M255.86 164.09 259.6 157.81 263.34 164.09 255.86 164.09Z"/></g><g><line x1="283.82" y1="58.1" x2="283.82" y2="158.48" stroke="#000000" stroke-miterlimit="10" fill="none"/><path d="M280.08 164.09 283.82 157.81 287.56 164.09 280.08 164.09Z"/></g><g><line x1="308.04" y1="58.1" x2="308.04" y2="158.48" stroke="#000000" stroke-miterlimit="10" fill="none"/><path d="M304.3 164.09 308.04 157.81 311.78 164.09 304.3 164.09Z"/></g><g><line x1="378.77" y1="58.1" x2="378.77" y2="158.48" stroke="#000000" stroke-miterlimit="10" fill="none"/><path d="M375.03 164.09 378.77 157.81 382.51 164.09 375.03 164.09Z"/></g><g><line x1="402.99" y1="58.1" x2="402.99" y2="158.48" stroke="#000000" stroke-miterlimit="10" fill="none"/><path d="M399.25 164.09 402.99 157.81 406.73 164.09 399.25 164.09Z"/></g><g><line x1="427.21" y1="58.1" x2="427.21" y2="158.48" stroke="#000000" stroke-miterlimit="10" fill="none"/><path d="M423.47 164.09 427.21 157.81 430.95 164.09 423.47 164.09Z"/></g><g><line x1="451.43" y1="58.1" x2="451.43" y2="158.48" stroke="#000000" stroke-miterlimit="10" fill="none"/><path d="M447.69 164.09 451.43 157.81 455.16 164.09 447.69 164.09Z"/></g><g><line x1="475.64" y1="58.1" x2="475.64" y2="158.48" stroke="#000000" stroke-miterlimit="10" fill="none"/><path d="M471.9 164.09 475.64 157.81 479.38 164.09 471.9 164.09Z"/></g><g><line x1="499.86" y1="58.1" x2="499.86" y2="158.48" stroke="#000000" stroke-miterlimit="10" fill="none"/><path d="M496.12 164.09 499.86 157.81 503.6 164.09 496.12 164.09Z"/></g><g><path d="M307.64 127.79 387 144.61 387 158.48" stroke="#000000" stroke-miterlimit="10" fill="none"/><path d="M383.26 164.09 387 157.81 390.74 164.09 383.26 164.09Z"/></g><g><path d="M283.42 116.92 395.05 140.91 395.05 158.48" stroke="#000000" stroke-miterlimit="10" fill="none"/><path d="M391.31 164.09 395.05 157.81 398.79 164.09 391.31 164.09Z"/></g><g><path d="M259.6 105.7 435.28 144.91 435.28 158.48" stroke="#000000" stroke-miterlimit="10" fill="none"/><path d="M431.54 164.09 435.28 157.81 439.02 164.09 431.54 164.09Z"/></g><g><path d="M235.39 94.86 443.3 141.53 443.3 158.48" stroke="#000000" stroke-miterlimit="10" fill="none"/><path d="M439.56 164.09 443.3 157.81 447.04 164.09 439.56 164.09Z"/></g><g><path d="M211.17 83.56 483.64 146.08 483.64 158.48" stroke="#000000" stroke-miterlimit="10" fill="none"/><path d="M479.9 164.09 483.64 157.81 487.38 164.09 479.9 164.09Z"/></g><g><path d="M186.95 71.71 491.73 143.27 491.72 158.48" stroke="#000000" stroke-miterlimit="10" fill="none"/><path d="M487.98 164.08 491.72 157.81 495.46 164.09 487.98 164.08Z"/></g><g><path d="M379.17 127.79 299.81 144.61 299.81 158.48" stroke="#000000" stroke-miterlimit="10" fill="none"/><path d="M296.07 164.09 299.81 157.81 303.55 164.09 296.07 164.09Z"/></g><g><path d="M403.39 116.92 291.76 140.91 291.76 158.48" stroke="#000000" stroke-miterlimit="10" fill="none"/><path d="M288.03 164.09 291.76 157.81 295.5 164.09 288.03 164.09Z"/></g><g><path d="M427.21 105.7 251.53 144.91 251.53 158.48" stroke="#000000" stroke-miterlimit="10" fill="none"/><path d="M247.79 164.09 251.53 157.81 255.27 164.09 247.79 164.09Z"/></g><g><path d="M451.43 94.86 243.51 141.53 243.51 158.48" stroke="#000000" stroke-miterlimit="10" fill="none"/><path d="M239.77 164.09 243.51 157.81 247.25 164.09 239.77 164.09Z"/></g><g><path d="M475.64 83.56 203.18 146.08 203.18 158.48" stroke="#000000" stroke-miterlimit="10" fill="none"/><path d="M199.44 164.09 203.18 157.81 206.91 164.09 199.44 164.09Z"/></g><g><path d="M499.86 71.71 195.08 143.27 195.09 158.48" stroke="#000000" stroke-miterlimit="10" fill="none"/><path d="M191.35 164.09 195.09 157.81 198.83 164.08 191.35 164.09Z"/></g><g><line x1="191" y1="166.3" x2="191" y2="280.91" stroke="#000000" stroke-miterlimit="10" fill="none"/><line x1="191" y1="280.91" x2="191" y2="291.83" stroke="#000000" stroke-miterlimit="10" stroke-dasharray="0 0 0 0 0 0 1 2 1 2 1 2" fill="none"/></g><g><line x1="206.37" y1="166.3" x2="206.37" y2="280.91" stroke="#000000" stroke-miterlimit="10" fill="none"/><line x1="206.37" y1="280.91" x2="206.37" y2="291.83" stroke="#000000" stroke-miterlimit="10" stroke-dasharray="0 0 0 0 0 0 1 2 1 2 1 2" fill="none"/></g><circle cx="175.07" cy="210.23" r="10" stroke="#000000" stroke-miterlimit="10" fill="#4E84C4"/><circle cx="222.17" cy="240.5" r="10" stroke="#000000" stroke-miterlimit="10" fill="#4E84C4"/><line x1="185.07" y1="210.23" x2="191" y2="210.23" stroke="#000000" stroke-miterlimit="10" fill="none"/><line x1="212.17" y1="240.5" x2="206.37" y2="240.5" stroke="#000000" stroke-miterlimit="10" fill="none"/><g><line x1="239.87" y1="166.3" x2="239.87" y2="280.91" stroke="#000000" stroke-miterlimit="10" fill="none"/><line x1="239.87" y1="280.91" x2="239.87" y2="291.83" stroke="#000000" stroke-miterlimit="10" stroke-dasharray="0 0 0 0 0 0 1 2 1 2 1 2" fill="none"/></g><g><line x1="255.25" y1="166.3" x2="255.25" y2="280.91" stroke="#000000" stroke-miterlimit="10" fill="none"/><line x1="255.25" y1="280.91" x2="255.25" y2="291.83" stroke="#000000" stroke-miterlimit="10" stroke-dasharray="0 0 0 0 0 0 1 2 1 2 1 2" fill="none"/></g><circle cx="223.94" cy="210.23" r="10" stroke="#000000" stroke-miterlimit="10" fill="#52854C"/><circle cx="271.04" cy="240.5" r="10" stroke="#000000" stroke-miterlimit="10" fill="#52854C"/><line x1="233.94" y1="210.23" x2="239.87" y2="210.23" stroke="#000000" stroke-miterlimit="10" fill="none"/><line x1="261.04" y1="240.5" x2="255.25" y2="240.5" stroke="#000000" stroke-miterlimit="10" fill="none"/><g><line x1="288.31" y1="166.3" x2="288.31" y2="280.91" stroke="#000000" stroke-miterlimit="10" fill="none"/><line x1="288.31" y1="280.91" x2="288.31" y2="291.83" stroke="#000000" stroke-miterlimit="10" stroke-dasharray="0 0 0 0 0 0 1 2 1 2 1 2" fill="none"/></g><g><line x1="303.69" y1="166.3" x2="303.69" y2="280.91" stroke="#000000" stroke-miterlimit="10" fill="none"/><line x1="303.69" y1="280.91" x2="303.69" y2="291.83" stroke="#000000" stroke-miterlimit="10" stroke-dasharray="0 0 0 0 0 0 1 2 1 2 1 2" fill="none"/></g><circle cx="272.38" cy="210.23" r="10" stroke="#000000" stroke-miterlimit="10" fill="#FFDB6D"/><circle cx="319.48" cy="240.5" r="10" stroke="#000000" stroke-miterlimit="10" fill="#FFDB6D"/><line x1="282.38" y1="210.23" x2="288.31" y2="210.23" stroke="#000000" stroke-miterlimit="10" fill="none"/><line x1="309.48" y1="240.5" x2="303.69" y2="240.5" stroke="#000000" stroke-miterlimit="10" fill="none"/><g><line x1="382.44" y1="166.3" x2="382.44" y2="280.91" stroke="#000000" stroke-miterlimit="10" fill="none"/><line x1="382.44" y1="280.91" x2="382.44" y2="291.83" stroke="#000000" stroke-miterlimit="10" stroke-dasharray="0 0 0 0 0 0 1 2 1 2 1 2" fill="none"/></g><g><line x1="397.82" y1="166.3" x2="397.82" y2="280.91" stroke="#000000" stroke-miterlimit="10" fill="none"/><line x1="397.82" y1="280.91" x2="397.82" y2="291.83" stroke="#000000" stroke-miterlimit="10" stroke-dasharray="0 0 0 0 0 0 1 2 1 2 1 2" fill="none"/></g><g><line x1="431.32" y1="166.3" x2="431.32" y2="280.91" stroke="#000000" stroke-miterlimit="10" fill="none"/><line x1="431.32" y1="280.91" x2="431.32" y2="291.83" stroke="#000000" stroke-miterlimit="10" stroke-dasharray="0 0 0 0 0 0 1 2 1 2 1 2" fill="none"/></g><g><line x1="446.69" y1="166.3" x2="446.69" y2="280.91" stroke="#000000" stroke-miterlimit="10" fill="none"/><line x1="446.69" y1="280.91" x2="446.69" y2="291.83" stroke="#000000" stroke-miterlimit="10" stroke-dasharray="0 0 0 0 0 0 1 2 1 2 1 2" fill="none"/></g><g><line x1="479.75" y1="166.3" x2="479.75" y2="280.91" stroke="#000000" stroke-miterlimit="10" fill="none"/><line x1="479.75" y1="280.91" x2="479.75" y2="291.83" stroke="#000000" stroke-miterlimit="10" stroke-dasharray="0 0 0 0 0 0 1 2 1 2 1 2" fill="none"/></g><g><line x1="495.13" y1="166.3" x2="495.13" y2="280.91" stroke="#000000" stroke-miterlimit="10" fill="none"/><line x1="495.13" y1="280.91" x2="495.13" y2="291.83" stroke="#000000" stroke-miterlimit="10" stroke-dasharray="0 0 0 0 0 0 1 2 1 2 1 2" fill="none"/></g><g><circle cx="366.51" cy="240.5" r="10" stroke="#000000" stroke-miterlimit="10" fill="#FFDB6D"/><line x1="376.51" y1="240.5" x2="382.44" y2="240.5" stroke="#000000" stroke-miterlimit="10" fill="none"/><circle cx="415.38" cy="240.5" r="10" stroke="#000000" stroke-miterlimit="10" fill="#52854C"/><line x1="425.38" y1="240.5" x2="431.32" y2="240.5" stroke="#000000" stroke-miterlimit="10" fill="none"/><circle cx="463.82" cy="240.5" r="10" stroke="#000000" stroke-miterlimit="10" fill="#4E84C4"/><line x1="473.82" y1="240.5" x2="479.75" y2="240.5" stroke="#000000" stroke-miterlimit="10" fill="none"/></g><g><circle cx="413.4" cy="210.23" r="10" stroke="#000000" stroke-miterlimit="10" fill="#FFDB6D"/><line x1="403.4" y1="210.23" x2="397.61" y2="210.23" stroke="#000000" stroke-miterlimit="10" fill="none"/><circle cx="462.28" cy="210.23" r="10" stroke="#000000" stroke-miterlimit="10" fill="#52854C"/><line x1="452.28" y1="210.23" x2="446.49" y2="210.23" stroke="#000000" stroke-miterlimit="10" fill="none"/><circle cx="510.72" cy="210.23" r="10" stroke="#000000" stroke-miterlimit="10" fill="#4E84C4"/><line x1="500.72" y1="210.23" x2="494.93" y2="210.23" stroke="#000000" stroke-miterlimit="10" fill="none"/></g><line x1="702.6" y1="0" x2="702.6" y2="309.96" stroke="#999999" stroke-miterlimit="10" stroke-dasharray="0 0 0 0 0 0 4 4 4 4 4 4" fill="none"/><g><circle cx="601.29" cy="48.1" r="10" stroke="#000000" stroke-miterlimit="10" fill="#4E84C4"/><line x1="601.29" y1="38.1" x2="601.29" y2="26.26" stroke="#000000" stroke-width="0.97" stroke-miterlimit="10" fill="#C1272D"/><path d="M608.79 18.76C608.79 22.9 605.43 26.26 601.29 26.26 597.15 26.26 593.79 22.9 593.79 18.76" stroke="#000000" stroke-miterlimit="10" fill="none"/><g><line x1="601.29" y1="58.1" x2="601.29" y2="158.48" stroke="#000000" stroke-miterlimit="10" fill="none"/><path d="M597.55 164.09 601.29 157.81 605.03 164.09 597.55 164.09Z"/></g></g><g><circle cx="634.45" cy="48.1" r="10" stroke="#000000" stroke-miterlimit="10" fill="#52854C"/><line x1="634.45" y1="38.1" x2="634.45" y2="26.26" stroke="#000000" stroke-width="0.97" stroke-miterlimit="10" fill="#C1272D"/><path d="M641.95 18.76C641.95 22.9 638.59 26.26 634.45 26.26 630.31 26.26 626.95 22.9 626.95 18.76" stroke="#000000" stroke-miterlimit="10" fill="none"/><g><line x1="634.45" y1="58.1" x2="634.45" y2="158.48" stroke="#000000" stroke-miterlimit="10" fill="none"/><path d="M630.71 164.09 634.45 157.81 638.19 164.09 630.71 164.09Z"/></g></g><g><circle cx="667.6" cy="48.1" r="10" stroke="#000000" stroke-miterlimit="10" fill="#FFDB6D"/><line x1="667.6" y1="38.1" x2="667.6" y2="26.26" stroke="#000000" stroke-width="0.97" stroke-miterlimit="10" fill="#C1272D"/><path d="M675.1 18.76C675.1 22.9 671.74 26.26 667.6 26.26 663.46 26.26 660.1 22.9 660.1 18.76" stroke="#000000" stroke-miterlimit="10" fill="none"/><g><line x1="667.6" y1="58.1" x2="667.6" y2="158.48" stroke="#000000" stroke-miterlimit="10" fill="none"/><path d="M663.86 164.09 667.6 157.81 671.34 164.09 663.86 164.09Z"/></g></g><g><line x1="601.29" y1="166.3" x2="601.29" y2="280.91" stroke="#000000" stroke-miterlimit="10" fill="none"/><rect x="598.04" y="165.8" width="6.5" height="1"/></g><line x1="601.29" y1="280.91" x2="601.29" y2="291.83" stroke="#000000" stroke-miterlimit="10" stroke-dasharray="0 0 0 0 0 0 1 2 1 2 1 2" fill="none"/><circle cx="585.84" cy="226.5" r="10" stroke="#000000" stroke-miterlimit="10" fill="#4E84C4"/><line x1="595.84" y1="226.5" x2="601.63" y2="226.5" stroke="#000000" stroke-miterlimit="10" fill="none"/><g><line x1="634.45" y1="166.3" x2="634.45" y2="280.91" stroke="#000000" stroke-miterlimit="10" fill="none"/><rect x="631.2" y="165.8" width="6.5" height="1"/></g><line x1="634.45" y1="280.91" x2="634.45" y2="291.83" stroke="#000000" stroke-miterlimit="10" stroke-dasharray="0 0 0 0 0 0 1 2 1 2 1 2" fill="none"/><circle cx="618.99" cy="226.5" r="10" stroke="#000000" stroke-miterlimit="10" fill="#52854C"/><line x1="628.99" y1="226.5" x2="634.79" y2="226.5" stroke="#000000" stroke-miterlimit="10" fill="none"/><g><line x1="667.6" y1="166.3" x2="667.6" y2="280.91" stroke="#000000" stroke-miterlimit="10" fill="none"/><rect x="664.35" y="165.8" width="6.5" height="1"/></g><line x1="667.6" y1="280.91" x2="667.6" y2="291.83" stroke="#000000" stroke-miterlimit="10" stroke-dasharray="0 0 0 0 0 0 1 2 1 2 1 2" fill="none"/><circle cx="652.15" cy="226.5" r="10" stroke="#000000" stroke-miterlimit="10" fill="#FFDB6D"/><line x1="662.15" y1="226.5" x2="667.94" y2="226.5" stroke="#000000" stroke-miterlimit="10" fill="none"/><g><circle cx="803.92" cy="48.1" r="10" stroke="#000000" stroke-miterlimit="10" fill="#4E84C4"/><line x1="803.92" y1="38.1" x2="803.92" y2="26.26" stroke="#000000" stroke-width="0.97" stroke-miterlimit="10" fill="#C1272D"/><path d="M796.42 18.76C796.42 22.9 799.78 26.26 803.92 26.26 808.06 26.26 811.42 22.9 811.42 18.76" stroke="#000000" stroke-miterlimit="10" fill="none"/><g><line x1="803.92" y1="58.1" x2="803.92" y2="158.48" stroke="#000000" stroke-miterlimit="10" fill="none"/><path d="M800.18 164.09 803.92 157.81 807.66 164.09 800.18 164.09Z"/></g></g><g><circle cx="770.76" cy="48.1" r="10" stroke="#000000" stroke-miterlimit="10" fill="#52854C"/><line x1="770.76" y1="38.1" x2="770.76" y2="26.26" stroke="#000000" stroke-width="0.97" stroke-miterlimit="10" fill="#C1272D"/><path d="M763.26 18.76C763.26 22.9 766.62 26.26 770.76 26.26 774.9 26.26 778.26 22.9 778.26 18.76" stroke="#000000" stroke-miterlimit="10" fill="none"/><g><line x1="770.76" y1="58.1" x2="770.76" y2="158.48" stroke="#000000" stroke-miterlimit="10" fill="none"/><path d="M767.02 164.09 770.76 157.81 774.5 164.09 767.02 164.09Z"/></g></g><g><circle cx="737.6" cy="48.1" r="10" stroke="#000000" stroke-miterlimit="10" fill="#FFDB6D"/><line x1="737.6" y1="38.1" x2="737.6" y2="26.26" stroke="#000000" stroke-width="0.97" stroke-miterlimit="10" fill="#C1272D"/><path d="M730.1 18.76C730.1 22.9 733.46 26.26 737.6 26.26 741.74 26.26 745.1 22.9 745.1 18.76" stroke="#000000" stroke-miterlimit="10" fill="none"/><g><line x1="737.6" y1="58.1" x2="737.6" y2="158.48" stroke="#000000" stroke-miterlimit="10" fill="none"/><path d="M733.86 164.09 737.6 157.81 741.34 164.09 733.86 164.09Z"/></g></g><g><line x1="803.92" y1="166.3" x2="803.92" y2="280.91" stroke="#000000" stroke-miterlimit="10" fill="none"/><rect x="800.67" y="165.8" width="6.5" height="1"/></g><line x1="803.92" y1="280.91" x2="803.92" y2="291.83" stroke="#000000" stroke-miterlimit="10" stroke-dasharray="0 0 0 0 0 0 1 2 1 2 1 2" fill="none"/><path d="M829.71 226.5C829.71 232.02 825.23 236.5 819.71 236.5 814.19 236.5 809.71 232.02 809.71 226.5 809.71 220.98 814.19 216.5 819.71 216.5 825.23 216.5 829.71 220.98 829.71 226.5Z" stroke="#000000" stroke-miterlimit="10" fill="#4E84C4"/><line x1="809.71" y1="226.5" x2="803.92" y2="226.5" stroke="#000000" stroke-miterlimit="10" fill="none"/><g><line x1="770.76" y1="166.3" x2="770.76" y2="280.91" stroke="#000000" stroke-miterlimit="10" fill="none"/><rect x="767.51" y="165.8" width="6.5" height="1"/></g><line x1="770.76" y1="280.91" x2="770.76" y2="291.83" stroke="#000000" stroke-miterlimit="10" stroke-dasharray="0 0 0 0 0 0 1 2 1 2 1 2" fill="none"/><path d="M796.55 226.5C796.55 232.02 792.07 236.5 786.55 236.5 781.03 236.5 776.55 232.02 776.55 226.5 776.55 220.98 781.03 216.5 786.55 216.5 792.07 216.5 796.55 220.98 796.55 226.5Z" stroke="#000000" stroke-miterlimit="10" fill="#52854C"/><line x1="776.55" y1="226.5" x2="770.76" y2="226.5" stroke="#000000" stroke-miterlimit="10" fill="none"/><g><line x1="737.6" y1="166.3" x2="737.6" y2="280.91" stroke="#000000" stroke-miterlimit="10" fill="none"/><rect x="734.35" y="165.8" width="6.5" height="1"/></g><line x1="737.6" y1="280.91" x2="737.6" y2="291.83" stroke="#000000" stroke-miterlimit="10" stroke-dasharray="0 0 0 0 0 0 1 2 1 2 1 2" fill="none"/><circle cx="753.4" cy="226.5" r="10" stroke="#000000" stroke-miterlimit="10" fill="#FFDB6D"/><line x1="743.4" y1="226.5" x2="737.6" y2="226.5" stroke="#000000" stroke-miterlimit="10" fill="none"/><text font-family="MyriadPro-Regular,Myriad Pro" font-size="24" transform="translate(77.23 57.1)"><tspan x="0" y="0">ORNs</tspan></text><text font-family="MyriadPro-Regular,Myriad Pro" font-size="24" transform="translate(77.23 236.03)"><tspan x="0" y="0">uPNs</tspan></text><text font-family="MyriadPro-Regular,Myriad Pro" font-size="24" transform="matrix(1 0 0 1 0 170.91)"><tspan x="0" y="0">AL glomeruli</tspan></text><text font-family="MyriadPro-Regular,Myriad Pro" font-size="24" transform="translate(318.04 344.71)"><tspan x="0" y="0">adult</tspan></text><text font-family="MyriadPro-Regular,Myriad Pro" font-size="24" transform="translate(678.6 344.71)"><tspan x="0" y="0">la</tspan><tspan letter-spacing="0.03em" x="17.23" y="0">r</tspan><tspan letter-spacing="0em" x="25.68" y="0">v</tspan><tspan letter-spacing="0em" x="37.13" y="0">a</tspan></text></svg>
